<?xml version="1.0" encoding="utf-8"?>
<!-- Generator: Adobe Illustrator 27.1.1, SVG Export Plug-In . SVG Version: 6.00 Build 0)  -->
<svg version="1.1" id="Capa_1" xmlns="http://www.w3.org/2000/svg" xmlns:xlink="http://www.w3.org/1999/xlink" x="0px" y="0px"
	 viewBox="0 0 124.34 35.36" style="enable-background:new 0 0 124.34 35.36;" xml:space="preserve">
<style type="text/css">
	.st0{fill:none;stroke:#C8C8CA;stroke-miterlimit:10;}
	.st1{fill:none;stroke:#C8C8CA;stroke-width:0.5;stroke-miterlimit:10;}
	.st2{fill:none;stroke:#C8C8CA;stroke-linecap:round;stroke-miterlimit:10;}
	.st3{fill:#60BE60;stroke:#24823A;stroke-miterlimit:10;}
	.st4{fill:none;stroke:#24823A;stroke-linecap:round;stroke-miterlimit:10;}
	.st5{fill:#93E5FF;}
	.st6{fill:#404040;stroke:#404040;stroke-width:3;stroke-miterlimit:10;}
	.st7{fill:none;stroke:#404040;stroke-width:3;stroke-linecap:round;stroke-miterlimit:10;}
	.st8{fill:#FFEB7D;}
	.st9{fill:#FF8B71;}
	.st10{fill:#404040;}
	.st11{fill:#58E77E;}
	.st12{fill:#3F3F3F;}
	.st13{fill:#404040;stroke:#404040;stroke-width:3;stroke-linecap:round;stroke-miterlimit:10;}
	.st14{fill:#FFFFFF;}
	.st15{fill:#FFEB7D;stroke:#404040;stroke-width:4;stroke-miterlimit:10;}
	.st16{fill:#FF8B71;stroke:#404040;stroke-width:4;stroke-miterlimit:10;}
	.st17{fill:#58E77E;stroke:#404040;stroke-width:4;stroke-miterlimit:10;}
	.st18{fill:#EB9DC3;}
	.st19{fill:#E58702;}
	.st20{fill:#D9D9D9;}
	.st21{fill:#1D1D1B;}
	.st22{fill:#9FD6EC;}
	.st23{fill:#FFE47E;}
	.st24{fill:#F0F0EF;stroke:#404040;stroke-width:3;stroke-linecap:round;stroke-miterlimit:10;}
	.st25{fill:#FFFFFF;stroke:#404040;stroke-width:3;stroke-linecap:round;stroke-miterlimit:10;}
	.st26{fill:#96CCB5;}
	.st27{fill:#FFFFFF;stroke:#404040;stroke-miterlimit:10;}
	.st28{fill:none;stroke:#404040;stroke-linecap:round;stroke-miterlimit:10;}
	.st29{fill:#C8E2F6;stroke:#404040;stroke-linecap:round;stroke-miterlimit:10;}
	.st30{fill:#3A4A97;}
	.st31{fill:#EC80B0;}
	.st32{fill:none;stroke:#3A4A97;stroke-linecap:round;stroke-miterlimit:10;}
	.st33{fill:none;stroke:#98A5D3;stroke-linecap:round;stroke-miterlimit:10;}
	.st34{fill:none;stroke:#FFFFFF;stroke-width:0.5;stroke-miterlimit:10;}
	.st35{fill:#FFFFFF;stroke:#404040;stroke-width:2;stroke-miterlimit:10;}
	.st36{fill:none;stroke:#404040;stroke-width:2;stroke-linecap:round;stroke-miterlimit:10;}
	.st37{fill:#C8E2F6;stroke:#404040;stroke-width:2;stroke-linecap:round;stroke-miterlimit:10;}
	.st38{fill:none;stroke:#3A4A97;stroke-width:2;stroke-linecap:round;stroke-miterlimit:10;}
	.st39{fill:none;stroke:#98A5D3;stroke-width:2;stroke-linecap:round;stroke-miterlimit:10;}
	.st40{fill:#C8C8CA;}
	.st41{fill:#93D193;}
	.st42{fill:none;stroke:#404040;stroke-miterlimit:10;}
	.st43{fill:#FFEB7D;stroke:#404040;stroke-width:3;stroke-miterlimit:10;}
	.st44{fill:none;stroke:#404040;stroke-width:4;stroke-linecap:round;stroke-miterlimit:10;}
	.st45{fill:none;stroke:#58E77E;stroke-miterlimit:10;}
	.st46{opacity:0.78;fill:#FFFFFF;}
	.st47{fill:#FFF8ED;}
	.st48{clip-path:url(#SVGID_00000164488965534466704010000005669082941869378487_);}
	.st49{fill:#FEC056;}
	.st50{fill:#FFFFFF;stroke:#404040;stroke-width:3;stroke-miterlimit:10;}
	.st51{fill:none;stroke:#4AB742;stroke-width:7;stroke-linecap:round;stroke-linejoin:round;}
	.st52{fill:#FFFFFF;stroke:#000000;stroke-miterlimit:10;}
	.st53{fill:#2D343E;}
	.st54{clip-path:url(#SVGID_00000062164667906476086370000004117084951308765582_);}
	.st55{fill:none;stroke:#404040;stroke-width:4;stroke-linecap:round;stroke-linejoin:round;}
	.st56{fill:#FFFFFF;stroke:#404040;stroke-width:4;stroke-miterlimit:10;}
	.st57{fill:none;stroke:#404040;stroke-width:4;stroke-miterlimit:10;}
	.st58{fill:#A0BEEA;}
	.st59{fill:#FFFFFF;stroke:#404040;stroke-width:4;stroke-linecap:round;stroke-miterlimit:10;}
	.st60{fill:none;stroke:#404040;stroke-width:3;stroke-miterlimit:10;}
	.st61{clip-path:url(#SVGID_00000019665127086800049330000011493210342703588027_);}
	.st62{opacity:0.61;fill:#FFFFFF;}
	.st63{fill:none;stroke:#FFFFFF;stroke-width:2;stroke-linecap:round;stroke-miterlimit:10;}
	.st64{fill:#FFFFFF;stroke:#404040;stroke-width:5;stroke-linecap:round;stroke-miterlimit:10;}
	.st65{clip-path:url(#SVGID_00000161631692159517544350000014518488890228084629_);}
	.st66{opacity:0.28;fill:#FFFFFF;}
	.st67{fill:none;stroke:#404040;stroke-width:5;stroke-miterlimit:10;}
	.st68{clip-path:url(#SVGID_00000026148536883329751160000004292869580669377702_);}
	.st69{clip-path:url(#SVGID_00000087399728477791730270000002988484396121540773_);fill:#575D60;}
	.st70{fill:#575D60;}
	
		.st71{clip-path:url(#SVGID_00000001632224621562526370000004465421716572394687_);fill:url(#SVGID_00000073716673629802843290000006731224257208212921_);}
	
		.st72{clip-path:url(#SVGID_00000032611217838105604420000016817376204465487013_);fill:url(#SVGID_00000037670594731985383250000000968300307225666691_);}
	.st73{clip-path:url(#SVGID_00000139277753237889713410000003178109773637946760_);fill:#FFFFFF;}
	
		.st74{clip-path:url(#SVGID_00000172422552033035920060000013598600470057994655_);fill:url(#SVGID_00000115483915742028871430000012430647584259849129_);}
</style>
<g>
	<defs>
		<rect id="SVGID_00000172431049840501291570000001814981630180401335_" width="122.32" height="35.36"/>
	</defs>
	<clipPath id="SVGID_00000082340988699108674750000018051905954389708965_">
		<use xlink:href="#SVGID_00000172431049840501291570000001814981630180401335_"  style="overflow:visible;"/>
	</clipPath>
	<path style="clip-path:url(#SVGID_00000082340988699108674750000018051905954389708965_);fill:#FFFFFF;" d="M115.06,19.67h6.39
		V14.6h-6.39V9.2h-5.28v25h12.55v-5.06h-7.27V19.67z M109.78,7.12h12.55V2.05h-12.55V7.12z M102.25,2.05l-3.52,22.37L95.2,2.05
		h-5.28l5.72,32.15h6.17l5.72-32.15H102.25z M80.27,32.44l2.64,2.42l2.64-2.42l-2.64-2.42L80.27,32.44z M81.29,23.1L83,11.21
		l1.72,11.89H81.29z M86.09,2.05h-6.17L75.3,28.16h15.46L86.09,2.05z M67.68,29.13V2.05H62.4V34.2h11.89v-5.06H67.68z M59.45,23.8
		h-5.28v2.42c0,2.42-0.75,3.39-1.76,3.39c-1.01,0-1.76-0.97-1.76-3.39V10.11c0-2.42,0.75-3.39,1.76-3.39c1.01,0,1.76,0.97,1.76,3.39
		v2.42h5.28V9.05c0-4.36-3.44-7.4-7.05-7.4c-3.61,0-7.05,3.04-7.05,7.4v18.23c0,4.36,3.43,7.4,7.05,7.4c3.61,0,7.05-3.04,7.05-7.4
		V23.8z"/>
</g>
<polygon class="st14" points="79.64,32.44 82.93,35.36 86.15,32.44 82.9,29.49 "/>
<g>
	<defs>
		<path id="SVGID_00000045585024988856580880000011658640249295691155_" d="M19.09,19.68c3.01,0.45,5.32,3.05,5.32,6.18
			c0,3.45-2.8,6.25-6.25,6.25c-3.02,0-5.53-2.14-6.12-4.98c-0.01,0-0.01,0-0.01,0C15.6,26.23,18.37,23.32,19.09,19.68 M19.76,16.23
			C19.76,16.23,19.77,16.23,19.76,16.23C19.77,16.23,19.76,16.23,19.76,16.23 M16.31,15.93c0,0.01,0,0.01,0,0.02
			C16.31,15.94,16.31,15.94,16.31,15.93 M3.38,17.81c0-2.93,2.02-5.39,4.74-6.07l0.16-0.03c0.82,3.74,3.81,6.67,7.59,7.4l0,0.01
			c-0.04-0.01-0.08-0.01-0.12-0.02c-0.59,2.84-3.11,4.97-6.12,4.97C6.18,24.06,3.38,21.26,3.38,17.81 M25.82,11.55
			c3.45,0,6.25,2.8,6.25,6.25c0,2.84-1.89,5.24-4.49,6c-0.78-3.88-3.9-6.91-7.82-7.58C20.47,13.54,22.91,11.55,25.82,11.55
			 M16.36,15.7c-2.83-0.59-4.96-3.11-4.96-6.12c0-3.45,2.8-6.25,6.25-6.25c3.04,0,5.58,2.17,6.14,5.05
			c-3.7,0.77-6.62,3.66-7.43,7.35C16.35,15.71,16.36,15.71,16.36,15.7 M17.7,0c-4.87,0-8.89,3.6-9.54,8.29H8.1
			C3.51,9.02,0,13,0,17.81c0,4.99,3.79,9.09,8.65,9.59c0.79,4.53,4.74,7.97,9.49,7.97c4.8,0,8.78-3.51,9.51-8.11
			c4.41-0.88,7.74-4.78,7.74-9.45c0-4.82-3.54-8.81-8.16-9.52C26.58,3.6,22.56,0,17.7,0z"/>
	</defs>
	<clipPath id="SVGID_00000124878516740997395860000006709155338396778428_">
		<use xlink:href="#SVGID_00000045585024988856580880000011658640249295691155_"  style="overflow:visible;"/>
	</clipPath>
	
		<linearGradient id="SVGID_00000059285619860389192980000017670117603944848008_" gradientUnits="userSpaceOnUse" x1="-938.5519" y1="547.4723" x2="-937.5519" y2="547.4723" gradientTransform="matrix(35.3975 0 0 -35.3975 33222.3906 19396.832)">
		<stop  offset="0" style="stop-color:#0087AE"/>
		<stop  offset="0.0104" style="stop-color:#0087AE"/>
		<stop  offset="0.0982" style="stop-color:#249BAC"/>
		<stop  offset="0.2381" style="stop-color:#65BEA8"/>
		<stop  offset="0.5087" style="stop-color:#FBB900"/>
		<stop  offset="0.8106" style="stop-color:#EC6464"/>
		<stop  offset="1" style="stop-color:#724695"/>
	</linearGradient>
	
		<rect y="0" style="clip-path:url(#SVGID_00000124878516740997395860000006709155338396778428_);fill:url(#SVGID_00000059285619860389192980000017670117603944848008_);" width="35.4" height="35.36"/>
</g>
</svg>
