<?xml version="1.0" encoding="UTF-8"?><svg id="Capa_1" xmlns="http://www.w3.org/2000/svg" xmlns:xlink="http://www.w3.org/1999/xlink" viewBox="0 0 124.22 35.36"><defs><style>.cls-1{clip-path:url(#clippath-1);}.cls-2{fill:#575d60;}.cls-3{fill:url(#Degradado_sin_nombre_2);}.cls-4{clip-path:url(#clippath);}.cls-5{fill:none;}</style><clipPath id="clippath"><rect class="cls-5" width="122.32" height="35.36"/></clipPath><clipPath id="clippath-1"><path class="cls-5" d="m19.09,19.68c3.01.45,5.32,3.05,5.32,6.18,0,3.45-2.8,6.25-6.25,6.25-3.02,0-5.53-2.14-6.12-4.98,0,0,0,0-.01,0,3.57-.91,6.35-3.82,7.07-7.46m.67-3.45s0,0,0,0c0,0,0,0,0,0m-3.45-.3s0,.01,0,.02c0,0,0-.01,0-.02m-12.93,1.87c0-2.93,2.02-5.39,4.74-6.07l.16-.03c.82,3.74,3.81,6.67,7.59,7.4h0s-.08,0-.12-.01c-.59,2.84-3.11,4.97-6.12,4.97-3.45,0-6.25-2.8-6.25-6.25m22.44-6.25c3.45,0,6.25,2.8,6.25,6.25,0,2.84-1.89,5.24-4.49,6-.78-3.88-3.9-6.91-7.82-7.58.7-2.69,3.14-4.68,6.05-4.68m-9.47,4.15c-2.83-.59-4.96-3.11-4.96-6.12,0-3.45,2.8-6.25,6.25-6.25,3.04,0,5.58,2.17,6.14,5.05-3.7.77-6.62,3.66-7.43,7.35,0,0,0-.01,0-.02m1.34-15.7c-4.87,0-8.89,3.6-9.54,8.29h-.05C3.51,9.02,0,13,0,17.81s3.79,9.09,8.65,9.59c.79,4.53,4.74,7.97,9.49,7.97s8.78-3.51,9.51-8.11c4.41-.88,7.74-4.78,7.74-9.45s-3.54-8.81-8.16-9.52C26.58,3.6,22.56,0,17.7,0Z"/></clipPath><linearGradient id="Degradado_sin_nombre_2" x1="-1162.68" y1="573.54" x2="-1161.68" y2="573.54" gradientTransform="translate(41156.07 20319.61) scale(35.4 -35.4)" gradientUnits="userSpaceOnUse"><stop offset="0" stop-color="#0087ae"/><stop offset=".01" stop-color="#0087ae"/><stop offset=".1" stop-color="#249aab"/><stop offset=".24" stop-color="#65bea8"/><stop offset=".51" stop-color="#fbb900"/><stop offset=".81" stop-color="#ec6464"/><stop offset="1" stop-color="#724695"/></linearGradient></defs><g class="cls-4"><path class="cls-2" d="m115.06,19.67h6.39v-5.06h-6.39v-5.4h-5.28v25h12.55v-5.06h-7.27v-9.47Zm-5.28-12.55h12.55V2.05h-12.55v5.06Zm-7.53-5.06l-3.52,22.37-3.52-22.37h-5.28l5.72,32.14h6.17l5.72-32.14h-5.28Zm-21.97,30.38l2.64,2.42,2.64-2.42-2.64-2.42-2.64,2.42Zm1.01-9.34l1.72-11.89,1.72,11.89h-3.43Zm4.8-21.05h-6.17l-4.62,26.11h15.46l-4.67-26.11Zm-18.41,27.08V2.05h-5.28v32.14h11.89v-5.06h-6.6Zm-8.23-5.33h-5.28v2.42c0,2.42-.75,3.39-1.76,3.39s-1.76-.97-1.76-3.39V10.11c0-2.42.75-3.39,1.76-3.39s1.76.97,1.76,3.39v2.42h5.28v-3.48c0-4.36-3.44-7.4-7.05-7.4s-7.05,3.04-7.05,7.4v18.23c0,4.36,3.43,7.4,7.05,7.4s7.05-3.04,7.05-7.4v-3.48Z"/></g><polygon class="cls-2" points="79.64 32.44 82.93 35.36 86.15 32.44 82.9 29.49 79.64 32.44"/><g class="cls-1"><rect class="cls-3" y="0" width="35.4" height="35.36"/></g></svg>