<?xml version="1.0" encoding="UTF-8"?><svg id="Layer_1" xmlns="http://www.w3.org/2000/svg" xmlns:xlink="http://www.w3.org/1999/xlink" viewBox="0 0 52.2 44.3"><defs><style>.cls-1{fill:url(#Degradado_sin_nombre_2);}.cls-2{clip-path:url(#clippath);}.cls-3{fill:none;}</style><clipPath id="clippath"><path class="cls-3" d="m26.93,24.62c3.52.52,6.22,3.56,6.22,7.22,0,4.03-3.27,7.3-7.3,7.3-3.52,0-6.46-2.49-7.15-5.81,0,0-.01,0-.02,0,4.17-1.06,7.41-4.46,8.25-8.71m.79-4.03s0,0,0,0c0,0,0,0,0,0m-4.03-.34s0,.02,0,.02c0,0,0-.01,0-.02m-15.09,2.19c0-3.42,2.36-6.3,5.54-7.09l.19-.04c.96,4.36,4.45,7.79,8.86,8.63h0s-.09,0-.14-.02c-.69,3.32-3.63,5.81-7.15,5.81-4.03,0-7.3-3.27-7.3-7.3m26.2-7.3c4.03,0,7.3,3.27,7.3,7.3,0,3.31-2.21,6.11-5.24,7-.92-4.53-4.55-8.07-9.13-8.85.82-3.14,3.67-5.46,7.07-5.46m-11.05,4.84c-3.31-.69-5.8-3.63-5.8-7.15,0-4.03,3.27-7.3,7.3-7.3,3.55,0,6.51,2.53,7.16,5.89-4.32.9-7.73,4.28-8.67,8.58,0,0,0-.02,0-.02m1.56-18.33c-5.68,0-10.38,4.21-11.14,9.68h-.06c-5.36.86-9.46,5.5-9.46,11.11s4.43,10.62,10.1,11.19c.92,5.29,5.53,9.31,11.08,9.31s10.25-4.1,11.11-9.47c5.15-1.03,9.03-5.58,9.03-11.03s-4.13-10.29-9.53-11.12c-.77-5.46-5.46-9.67-11.14-9.67Z"/></clipPath><linearGradient id="Degradado_sin_nombre_2" x1="-459.51" y1="362.34" x2="-458.34" y2="362.34" gradientTransform="translate(16270.02 12848.32) scale(35.4 -35.4)" gradientUnits="userSpaceOnUse"><stop offset="0" stop-color="#0087ae"/><stop offset=".01" stop-color="#0087ae"/><stop offset=".1" stop-color="#249aab"/><stop offset=".24" stop-color="#65bea8"/><stop offset=".51" stop-color="#fbb900"/><stop offset=".81" stop-color="#ec6464"/><stop offset="1" stop-color="#724695"/></linearGradient></defs><g class="cls-2"><rect class="cls-1" x="4.64" y="1.65" width="41.32" height="41.28"/></g></svg>