<?xml version="1.0" encoding="UTF-8"?><svg id="Capa_1" xmlns="http://www.w3.org/2000/svg" xmlns:xlink="http://www.w3.org/1999/xlink" viewBox="0 0 107.03 117.04"><defs><style>.cls-1,.cls-2,.cls-3,.cls-4,.cls-5,.cls-6,.cls-7{fill:none;}.cls-2{opacity:.35;}.cls-3{clip-path:url(#clippath-2);}.cls-4{clip-path:url(#clippath-1);}.cls-8{fill:#00529f;}.cls-9{fill:#fff;}.cls-5{stroke:#404040;stroke-width:2px;}.cls-5,.cls-6{stroke-miterlimit:10;}.cls-6{stroke:#00529f;stroke-linecap:round;stroke-width:5px;}.cls-7{clip-path:url(#clippath);}</style><clipPath id="clippath"><rect class="cls-1" width="107.03" height="117.04"/></clipPath><clipPath id="clippath-1"><rect class="cls-1" width="107.03" height="117.04"/></clipPath><clipPath id="clippath-2"><rect class="cls-1" x="27.05" y="19.17" width="67.16" height="77.64"/></clipPath></defs><g class="cls-7"><g id="Grupo_52"><g id="Grupo_51"><g class="cls-4"><g id="Grupo_50"><path id="Trazado_982" class="cls-9" d="m106.24,7.88v101.28c-.01,3.91-3.18,7.08-7.09,7.09H22.3c-3.91-.01-7.08-3.18-7.09-7.09V7.88c.01-3.91,3.18-7.08,7.09-7.09h76.84c3.91.01,7.08,3.18,7.09,7.09"/><rect id="Rectángulo_45" class="cls-5" x="15.21" y=".79" width="91.03" height="115.46" rx="9" ry="9"/><g id="Grupo_49" class="cls-2"><g id="Grupo_48"><g class="cls-3"><g id="Grupo_47"><line id="Línea_22" class="cls-6" x1="29.02" y1="21.14" x2="92.24" y2="21.14"/><line id="Línea_23" class="cls-6" x1="29.02" y1="33.42" x2="92.24" y2="33.42"/><line id="Línea_24" class="cls-6" x1="29.02" y1="45.71" x2="92.24" y2="45.71"/><line id="Línea_25" class="cls-6" x1="29.02" y1="57.99" x2="92.24" y2="57.99"/><line id="Línea_26" class="cls-6" x1="29.02" y1="70.27" x2="92.24" y2="70.27"/><line id="Línea_27" class="cls-6" x1="29.02" y1="82.56" x2="92.24" y2="82.56"/><line id="Línea_28" class="cls-6" x1="38.2" y1="94.84" x2="83.06" y2="94.84"/></g></g></g></g><path id="Trazado_983" class="cls-8" d="m50.02,82.44H3.85c-1.69,0-3.06-1.37-3.06-3.06v-41.72c0-1.69,1.37-3.05,3.06-3.06h46.18c1.69,0,3.06,1.37,3.06,3.06v41.72c0,1.69-1.37,3.06-3.06,3.06"/><path id="Rectángulo_47" class="cls-5" d="m4.67,34.6h44.53c2.14,0,3.89,1.73,3.89,3.88,0,0,0,0,0,0v40.08c0,2.14-1.74,3.88-3.88,3.88H4.67c-2.14,0-3.88-1.74-3.88-3.88h0v-40.08c0-2.14,1.74-3.88,3.88-3.88h0Z"/><path id="Trazado_984" class="cls-9" d="m33.8,69.28c-.39,1.15-1.87,1.7-3.37,1.7s-3.04-.56-3.3-1.7l-1.7-7.75-1.7,7.75c-.26,1.15-1.83,1.7-3.31,1.7s-3.01-.56-3.37-1.7l-6.52-19.96c-.04-.14-.06-.28-.06-.43,0-1.11,1.83-2.03,3.3-2.03.79,0,1.44.26,1.64.95l4.98,16.79,2.58-11.06c.2-.88,1.34-1.34,2.45-1.34s2.26.46,2.45,1.34l2.59,11.06,4.97-16.78c.2-.69.85-.95,1.64-.95,1.47,0,3.3.92,3.3,2.03,0,.14-.02.29-.07.43l-6.51,19.95Z"/></g></g></g></g></g></svg>