<?xml version="1.0" encoding="UTF-8"?><svg id="Capa_1" xmlns="http://www.w3.org/2000/svg" xmlns:xlink="http://www.w3.org/1999/xlink" viewBox="0 0 107.45 117.46"><defs><style>.cls-1,.cls-2,.cls-3,.cls-4,.cls-5,.cls-6,.cls-7,.cls-8,.cls-9,.cls-10,.cls-11{fill:none;}.cls-2{opacity:.35;}.cls-3{clip-path:url(#clippath-6);}.cls-4{clip-path:url(#clippath-5);}.cls-5{clip-path:url(#clippath-3);}.cls-6{clip-path:url(#clippath-4);}.cls-7{clip-path:url(#clippath-2);}.cls-8{clip-path:url(#clippath-1);}.cls-12{fill:#02723a;}.cls-13{fill:#01723a;}.cls-14{fill:#fff;}.cls-9{stroke:#fff;stroke-linecap:round;stroke-width:7px;}.cls-9,.cls-10{stroke-miterlimit:10;}.cls-10{stroke:#404040;stroke-width:2px;}.cls-11{clip-path:url(#clippath);}</style><clipPath id="clippath"><rect class="cls-1" x=".21" y=".21" width="107.03" height="117.04"/></clipPath><clipPath id="clippath-1"><rect class="cls-1" x=".21" y=".21" width="107.03" height="117.04"/></clipPath><clipPath id="clippath-2"><rect class="cls-1" x="22.44" y="32.39" width="77.29" height="12.52"/></clipPath><clipPath id="clippath-3"><rect class="cls-1" x="22.44" y="52.87" width="77.29" height="12.52"/></clipPath><clipPath id="clippath-4"><rect class="cls-1" x="22.44" y="73.35" width="77.29" height="12.52"/></clipPath><clipPath id="clippath-5"><rect class="cls-1" x="22.44" y="93.83" width="77.29" height="12.52"/></clipPath><clipPath id="clippath-6"><rect class="cls-1" x="22.44" y="11.91" width="77.29" height="12.52"/></clipPath></defs><g class="cls-11"><g id="Grupo_40"><g id="Grupo_39"><g class="cls-8"><g id="Grupo_38"><path id="Trazado_965" class="cls-14" d="m106.45,8.09v101.28c-.01,3.91-3.18,7.08-7.09,7.09H22.51c-3.91-.01-7.08-3.18-7.09-7.09V8.09c.01-3.91,3.18-7.08,7.09-7.09h76.84c3.91.01,7.08,3.18,7.09,7.09"/><rect id="Rectángulo_34" class="cls-10" x="15.42" y="1" width="91.03" height="115.46" rx="9" ry="9"/><g id="Grupo_25" class="cls-2"><g id="Grupo_24"><g class="cls-7"><g id="Grupo_23"><path id="Trazado_966" class="cls-13" d="m44.6,44.91h-21.54c-.34,0-.61-.28-.62-.62v-11.28c0-.34.28-.62.62-.62h21.54c.34,0,.61.28.62.62v11.29c0,.34-.28.61-.62.62"/><path id="Trazado_967" class="cls-13" d="m71.85,44.91h-21.54c-.34,0-.61-.28-.62-.62v-11.28c0-.34.28-.62.62-.62h21.54c.34,0,.62.28.62.62v11.29c0,.34-.28.62-.62.62"/><path id="Trazado_968" class="cls-13" d="m99.11,44.91h-21.54c-.34,0-.61-.28-.62-.62v-11.28c0-.34.28-.61.62-.62h21.54c.34,0,.62.28.62.62v11.29c0,.34-.28.62-.62.62"/></g></g></g></g><g id="Grupo_28" class="cls-2"><g id="Grupo_27"><g class="cls-5"><g id="Grupo_26"><path id="Trazado_969" class="cls-13" d="m44.6,65.39h-21.54c-.34,0-.61-.28-.62-.62v-11.29c0-.34.28-.62.62-.62h21.54c.34,0,.61.28.62.62v11.29c0,.34-.28.61-.62.62"/><path id="Trazado_970" class="cls-13" d="m71.85,65.39h-21.54c-.34,0-.61-.28-.62-.62v-11.29c0-.34.28-.62.62-.62h21.54c.34,0,.62.28.62.62v11.29c0,.34-.28.62-.62.62"/><path id="Trazado_971" class="cls-13" d="m99.11,65.39h-21.54c-.34,0-.61-.28-.62-.62v-11.29c0-.34.28-.61.62-.62h21.54c.34,0,.62.28.62.62v11.29c0,.34-.28.62-.62.62"/></g></g></g></g><g id="Grupo_31" class="cls-2"><g id="Grupo_30"><g class="cls-6"><g id="Grupo_29"><path id="Trazado_972" class="cls-13" d="m44.6,85.87h-21.54c-.34,0-.61-.28-.62-.62v-11.29c0-.34.28-.62.62-.62h21.54c.34,0,.61.28.62.62v11.29c0,.34-.28.61-.62.62"/><path id="Trazado_973" class="cls-13" d="m71.85,85.87h-21.54c-.34,0-.61-.28-.62-.62v-11.29c0-.34.27-.62.61-.62,0,0,0,0,0,0h21.54c.34,0,.62.28.62.62v11.29c0,.34-.28.62-.62.62"/><path id="Trazado_974" class="cls-13" d="m99.11,85.87h-21.54c-.34,0-.61-.28-.62-.62v-11.29c0-.34.28-.61.62-.62h21.54c.34,0,.62.28.62.62v11.29c0,.34-.28.62-.62.62"/></g></g></g></g><g id="Grupo_34" class="cls-2"><g id="Grupo_33"><g class="cls-4"><g id="Grupo_32"><path id="Trazado_975" class="cls-13" d="m44.6,106.35h-21.54c-.34,0-.61-.28-.62-.62v-11.29c0-.34.28-.62.62-.62h21.54c.34,0,.61.28.62.62v11.29c0,.34-.28.61-.62.62"/><path id="Trazado_976" class="cls-13" d="m71.85,106.35h-21.54c-.34,0-.61-.28-.62-.62v-11.29c0-.34.28-.62.62-.62h21.54c.34,0,.62.28.62.62v11.29c0,.34-.28.62-.62.62"/><path id="Trazado_977" class="cls-13" d="m99.11,106.35h-21.54c-.34,0-.61-.28-.62-.62v-11.29c0-.34.28-.61.62-.62h21.54c.34,0,.62.28.62.62v11.29c0,.34-.28.62-.62.62"/></g></g></g></g><g id="Grupo_37" class="cls-2"><g id="Grupo_36"><g class="cls-3"><g id="Grupo_35"><path id="Trazado_978" class="cls-13" d="m44.6,24.43h-21.54c-.34,0-.61-.28-.62-.62v-11.29c0-.34.28-.62.62-.62h21.54c.34,0,.61.28.62.62v11.29c0,.34-.28.61-.62.62"/><path id="Trazado_979" class="cls-13" d="m71.85,24.43h-21.54c-.34,0-.61-.28-.62-.62v-11.29c0-.34.28-.62.62-.62h21.54c.34,0,.62.28.62.62v11.29c0,.34-.28.62-.62.62"/><path id="Trazado_980" class="cls-13" d="m99.11,24.43h-21.54c-.34,0-.61-.28-.62-.62v-11.29c0-.34.28-.61.62-.62h21.54c.34,0,.62.28.62.62v11.29c0,.34-.28.62-.62.62"/></g></g></g></g><path id="Trazado_981" class="cls-12" d="m50.24,82.65H4.06c-1.69,0-3.06-1.37-3.06-3.06v-41.72c0-1.69,1.37-3.05,3.06-3.06h46.18c1.69,0,3.06,1.37,3.06,3.06v41.72c0,1.69-1.37,3.06-3.06,3.06"/><path id="Rectángulo_40" class="cls-10" d="m4.88,34.81h44.53c2.14,0,3.89,1.73,3.89,3.88,0,0,0,0,0,0v40.08c0,2.14-1.74,3.88-3.88,3.88H4.88c-2.14,0-3.88-1.74-3.88-3.88h0v-40.08c0-2.14,1.74-3.88,3.88-3.88h0Z"/><line id="Línea_20" class="cls-9" x1="17.52" y1="49.5" x2="36.78" y2="68.76"/><line id="Línea_21" class="cls-9" x1="36.78" y1="49.5" x2="17.52" y2="68.76"/></g></g></g></g></g></svg>